<?xml version="1.0" encoding="utf-8"?>
<!-- Svg Vector Icons : http://www.onlinewebfonts.com/icon -->
<!DOCTYPE svg PUBLIC "-//W3C//DTD SVG 1.1//EN" "http://www.w3.org/Graphics/SVG/1.1/DTD/svg11.dtd">
<svg version="1.1" xmlns="http://www.w3.org/2000/svg" xmlns:xlink="http://www.w3.org/1999/xlink" x="0px" y="0px" viewBox="0 0 256 256" enable-background="new 0 0 256 256" xml:space="preserve">
<metadata> Svg Vector Icons : http://www.onlinewebfonts.com/icon </metadata>
<g><g><path fill="#000000" d="M229.3,78l-66-65.5c-1.5-1.5-3.9-2.5-6.4-2.5H48.9c-6.9,0-13.3,2.9-17.2,6.9c-4.4,4.5-7.4,10.4-7.4,17.3v187.7c0,6.9,3,13.3,7.4,16.8c4.4,4.4,10.3,7.4,17.2,7.4h158.1c6.9,0,12.8-2.5,17.2-6.9c4.9-4.4,7.4-10.8,7.4-17.2V84.4C231.7,82.4,231.2,80,229.3,78z M161.8,37.6l41.9,41.9V80h-32c-2.5,0-4.9-1-6.9-3l-0.5-0.5c-1.5-2-2.5-4.4-2.5-6.9L161.8,37.6L161.8,37.6z M214.5,223L214.5,223c0,2-1,3.5-2,4.5c-1,1-3,2-4.5,2H48c-2,0-3.5-1-4.5-2c-1.5-1-2-3-2-4.5V33c0-1.5,0.5-3,2-4c1-1.5,2.5-2,4.5-2h103.2v41.9c0,5.5,2.5,10.5,6,14.5v0.5c4,3.5,9,6,15,6H214h0.5L214.5,223L214.5,223z"/><path fill="#000000" d="M129.6,139c0,2.9,2.3,5.2,5.2,5.2c2.9,0,5.2-2.3,5.2-5.2c0-2.9-2.3-5.2-5.2-5.2C131.9,133.8,129.6,136.1,129.6,139z"/><path fill="#000000" d="M99.7,139c0,2.9,2.3,5.2,5.2,5.2c2.9,0,5.2-2.3,5.2-5.2c0-2.9-2.3-5.2-5.2-5.2C102,133.8,99.7,136.1,99.7,139z"/><path fill="#000000" d="M89.4,132.6c-0.2,0-0.5,0-0.7,0H58.7c-0.2,0-0.5,0-0.7,0c-2.9,0-5.3,2.4-5.3,5.3c0,2.9,2.4,5.3,5.3,5.3c0.2,0,0.4,0,0.7,0h8.6v38c0,0.1,0,0.2,0,0.3c0,3.4,2.8,6.2,6.2,6.2s6.2-2.8,6.2-6.2c0,0,0,0,0,0l0,0v-38.3h9.2c0.2,0,0.4,0,0.7,0c2.9,0,5.3-2.4,5.3-5.3C94.8,135,92.3,132.6,89.4,132.6z"/><path fill="#000000" d="M185.3,132.6c-0.2,0-0.5,0-0.7,0h-30.1c-0.2,0-0.5,0-0.7,0c-2.9,0-5.3,2.4-5.3,5.3c0,2.9,2.4,5.3,5.3,5.3c0.2,0,0.4,0,0.7,0h8.6v38c0,0.1,0,0.2,0,0.3c0,3.4,2.8,6.2,6.2,6.2c3.4,0,6.2-2.8,6.2-6.2c0,0,0,0,0,0l0,0v-38.3h9.2c0.2,0,0.4,0,0.7,0c2.9,0,5.3-2.4,5.3-5.3C190.6,135,188.2,132.6,185.3,132.6z"/><path fill="#000000" d="M132.5,136c-0.9-0.1,0.7,0.2,2.1,0.6C134.7,136.4,134.1,136.1,132.5,136z"/><path fill="#000000" d="M126.6,159.5l12.6-17.6c0.6-0.7,0.6-1.6-0.1-2.5c-0.7-0.9-1.6-1.7-2.8-2.3c-0.4-0.2-0.9-0.4-1.5-0.5c0,0.7-5.2,1.3-3.9-0.8l-10.7,14.9l-10.7-14.4c-0.6-0.8-1.5-1.3-2.7-1.2c-1.3,0.2-2.5,0.6-3.6,1.3c-1.2,0.7-2.1,1.5-2.8,2.4c-0.7,0.9-0.1,2.5,0.4,3.2l13.1,17.7l-12.6,17.6c-0.4,0.4-0.7,0.8-0.9,1.2c-0.2,0.2-0.3,0.5-0.3,0.7c-0.2,0.5-0.3,1.1-0.3,1.7c0,2.9,2.3,5.2,5.2,5.2c1.9,0,3.6-1,4.5-2.6l10.8-15.1L131,183c0.9,1.6,2.6,2.7,4.6,2.7c2.9,0,5.2-2.3,5.2-5.2c0-1.3-0.5-2.5-1.2-3.3L126.6,159.5z"/></g></g>
</svg>